/* XPM */
static char *_4cb9afba70b4469a830bff0bed4b2a3erp0VHq35eN49Wrd[] = {
/* columns rows colors chars-per-pixel */
"64 64 167 2 ",
"   c #423B2B",
".  c #40422D",
"X  c #4E4536",
"o  c #4B4839",
"O  c #534C3D",
"+  c #594E3D",
"@  c #5A513F",
"#  c #554E42",
"$  c #5A4E43",
"%  c #565144",
"&  c #5B5344",
"*  c #5D5845",
"=  c #5D564A",
"-  c #5E584B",
";  c #5F5B52",
":  c #644E40",
">  c #625546",
",  c #605947",
"<  c #685946",
"1  c #61564A",
"2  c #695749",
"3  c #635B4D",
"4  c #6B5C4E",
"5  c #725D4C",
"6  c #655E52",
"7  c #6A5E52",
"8  c #735F52",
"9  c #65604D",
"0  c #69624E",
"q  c #666153",
"w  c #6B6355",
"e  c #6D6957",
"r  c #666359",
"t  c #6D655A",
"y  c #6E695C",
"u  c #726455",
"i  c #796656",
"p  c #726956",
"a  c #72675B",
"s  c #79675B",
"d  c #736B5D",
"f  c #7B6C5D",
"g  c #77725F",
"h  c #7A725E",
"j  c #6E6761",
"k  c #6E6B62",
"l  c #746D62",
"z  c #796E62",
"x  c #766F69",
"c  c #786F6A",
"v  c #6F716C",
"b  c #767164",
"n  c #7A7365",
"m  c #7D7966",
"M  c #767369",
"N  c #7C756A",
"B  c #7E796C",
"V  c #737977",
"C  c #7E7C71",
"Z  c #826D5C",
"A  c #8A745F",
"S  c #826F61",
"D  c #827565",
"F  c #887466",
"G  c #837A67",
"H  c #8A7B66",
"J  c #81766B",
"K  c #80786B",
"L  c #837A6B",
"P  c #817869",
"I  c #81796C",
"U  c #82786C",
"Y  c #807A6C",
"T  c #827A6D",
"R  c #80796F",
"E  c #817B6F",
"W  c #837B6E",
"Q  c #847B6C",
"!  c #857B6F",
"~  c #837D6F",
"^  c #847C6F",
"/  c #877E6F",
"(  c #827B6D",
")  c #887B6B",
"_  c #8A7E6E",
"`  c #8B7B6C",
"'  c #817670",
"]  c #817670",
"[  c #827970",
"{  c #827B71",
"}  c #837B70",
"|  c #847B72",
" . c #857D70",
".. c #877D71",
"X. c #857F71",
"o. c #867E71",
"O. c #847E72",
"+. c #857F73",
"@. c #877F72",
"#. c #837F74",
"$. c #857E74",
"%. c #847D72",
"&. c #887F70",
"*. c #897F73",
"=. c #897E73",
"-. c #867F79",
";. c #917F73",
":. c #7F8072",
">. c #86806E",
",. c #868072",
"<. c #878173",
"1. c #878175",
"2. c #858174",
"3. c #898071",
"4. c #888073",
"5. c #8A8172",
"6. c #8B8273",
"7. c #898174",
"8. c #888075",
"9. c #888274",
"0. c #8A8275",
"q. c #888177",
"w. c #898377",
"e. c #888276",
"r. c #8B8376",
"t. c #8B8577",
"y. c #8C8477",
"u. c #8F8677",
"i. c #8A8375",
"p. c #8C8876",
"a. c #868279",
"s. c #8B8379",
"d. c #8B8579",
"f. c #8B847A",
"g. c #8D8579",
"h. c #8E8679",
"j. c #8F877A",
"k. c #8E867B",
"l. c #8C857A",
"z. c #86887D",
"x. c #8E887A",
"c. c #8F897D",
"v. c #8D897C",
"b. c #918577",
"n. c #918376",
"m. c #918976",
"M. c #91867B",
"N. c #918879",
"B. c #90887B",
"V. c #91897C",
"C. c #908A7C",
"Z. c #928A7D",
"A. c #938B7E",
"S. c #978B7D",
"D. c #938D7F",
"F. c #958C7D",
"G. c #948C7F",
"H. c #928B7D",
"J. c #8D8B81",
"K. c #958D81",
"L. c #948C82",
"P. c #9A8E82",
"I. c #969184",
"U. c #999184",
"Y. c #9A9285",
"T. c #9D9489",
"R. c #A39C8C",
/* pixels */
"A.d d d 6 6 t N _ y. .b N N a 4 > a w 3 a n d y b  .A.D.w ~ d ~ T d 3 % 6 N n 3 b 1 b d d x B w l 0. .T  . .h.0.U.b h.N N a t 0.",
"d w d d d N T y._ &.N M B T N D ) f 1 1 z s.} l t d y w w t.B 6 N b K d N N T a 7 b B.n t l l t t 0.h.B.K.B.T t t d n K N l N d ",
"3 d  .N n n t t b.J d l  .0.N D S.f 3 a &.K.} 7 l <.x.N b n <.y F.^ 0.a l q  . .w 6.F.K d l w n n B.4.K T T K a d N 6  .^ N A.w ",
"q K A. .T N t N n b t 7 t t 6 3 ! w t T  . .N t q y l B T b 0.N T l N l d 6 d l ! K K ^ l n y 0.d ^ K K T n N l 0.T 1 y.T n  .6 ",
"N T 0.K b t t A.l  .K w 3 6 t l n w d T n d n n B  .N 0.l w l d ^ d t T n N n N 4.p d T t N T 0.l l w l T N T  .l n t ^ t w q % ",
" .N  . .b 3 3  .1.h.N 7 a  .h.1.N l N <.N a t t d } } T t n s.f.N w O t 3 d w t b a K N 3 N 0.N n t # 3 n N T T - N 4.d % 6 w a ",
"N w n 0.^ b l 0.#.N 3 & p 4. .b N N N  . .d 3 1 n t y 6 t l d - l d d h.T  .l d n n 4.d t N B y 6 d t d N b d w 3 4.y.w w d N  .",
"n % - t w t d N M N a w u d l l k b y l B d t h t = 0.N $.y l N t w l T N N  .0.y.^ ! t K N d t w 0.4.d 6 q l b 6 T N d h.N N N ",
"^ - t n - O w 0.l N 0.l d 3 y l T T 3 n  .t n T B l t n b w n D.R = t  .s.n 0.f.B l - % t n d 7 w d t N t N c.<.h.w 6 T h.T n n ",
"K b h.0.l N  .T A.T n B t % q t.t w l 4.T l n l B d d b d w d 0. .a n T  .t 6 # % t l n s.k.N 6 t b l N y N T t w N 0.N n 0.A.4.",
"n K y.l d A.y.q n <.n d 3 b b n w 3 4.h.l N T b n y N n d d y  .K n d t T } T n B 1.N d T h.N w d N  .N y %.b q N K N n d d t q ",
"w b 0.d q n l 3 d y 6 t y n n n N n A.K.N b n d y w %.N b B y %.h G h a ^  .b l B 1.T N $.k.$.N <.^ h.N l  .b l A.n t B 0.n 6 q ",
"1 d U.K.n w w N N d w % 3 y ~ ~ T A.0.U.B.t t 3 w 6 %.N b N t N Q m.n a N l 7 l q l N %.0. .} f.x.b n d T 0.N T t l l d n l 6 3 ",
"d t T 0.T d d h.N <.~ % - t  .n N y.t N  .w l d l y %.N n x t x K _ u t l N N U.N t - t N N d l n 1 & 9 6.x.%. .d  .4.T  .T b N ",
"K t 6 3 d  .K  .t.t w n T t y ~ N n 3 3 6 t  .~ B N } } n y y n t n t x N %.b T y 6 & y 0. .t 1 d q * 3 L N %. .a d t n 0.l t 0.",
"a n l = w 0.4.T T 3 O b <.t.n n 0.d d 3 O l  .b $.} N N l 6 y N ' $.d l d %.n N l B  .%.T x t w B y.n 0 d * b N T  .N N n - # n ",
"N b t ^ q n l x a q & l 1.B N m b B ~ ^ 3 w l 2.d d t b N K q d w ! y.N l b b y t t.0.n n T d t ,.~ z z J J B ~ K l N N N  .N l ",
"N l N <.t t b f.p.N 6 l $.T B n 2.f.<.y.p a b B b q 3 B F.T.b a % z K a t B f.B b T <.B T n n T f.b a 3 w z d t.l t l l  .T.A.n ",
"l x  .n t 6 N k.m K d l n l B >.B 1.N 4.z t n l x t d N d N t t N b n n d d b 1. .N T t l d T b D.n n 7 7 d 3 n t N h.N d  .0. .",
"b B T t t b %.N N t.B x t 3 3 9 t d w n d 6 n l N $.L.$.- t a n l 6 3 d b b B L.h.y d 3 d w N t l l b 6 7 a 1 6 h.4.4.l d T N a ",
"%. .n b N f.%.N 6.y.b l N l q % w w w x l 6 n n n $.L.$.t | R x n n d 3 q b l 6 T 3 d d J 7 n d d h. .N ^ y.F.T B.N K n l N l d ",
"B n l B  . .N 0.6.t.b n $. .~ b f a N T N d n L y l l d w  .N d b N b d b  .K a 3 n S.n z a n 7 w P.0.<.0.T h.w d t K K d d d n ",
"t d l y N N N ~ 6.6.n n N b b n h 7 $.} } N f G N d t a d K t d L.f.t.h. .b t t 6 M.T.z t l n w z P.D.c.x.B n 7 l q t d l N l t ",
"1 l N # M N <.d g y & q N b d e u + T n T N w z 4.a 3 B F.y.1 3 b #.f. .N b d u &.0.J N N d d h.d N B M n n z ! t d T d q b T  .",
"d b 0.7 1 l a y.N %.N w 3 1 q b x.B B b B d n N B n w B U. .x N l N h. . .^ t t N h.<.~ y n n T f D u 3 s.N M #.u f f N R N B M ",
"p z  .d 6 6 3 ^ ,.t.n w d ^ t.t.<.n n l n d N  .n l t y y l } } n l K N ^ N 3 w t b l n d  .~  .u w 3 3  . .1.J.< p p J N x C M ",
"q a N =.R t q D b n w % t  .<.N n d n b n d n B  .~ N l 3 x U.f.K w - 3 d n b y.t.t.B N n T b y w 6 t y B b d q & u d T N l N l ",
", 7 t =.M.l 3 3 t n l w t l d y d d n B ~ n l d N T n y 6 l 1.l 4.l 6 6 d l l T b y 6 3 q y t q c.B b y w t d y 7 u !  .T N d b ",
"P ^ T h.L.| n d t  .x. .d 3 w n B n n ~  .~ l t w T n d l d y t w b N  .0.T l t w 6 q t b n N N %.b b l q b y.y.K t r.n n 0.t %.",
"D ^ R a t t a D w  .K.9.y & w r.t.T d n b B d t w t.<.%.1.N n } 3 n N K T K  . .b l N B ~ l l d w w d N d T y.0.0.q N 6 6 N w 0.",
"L T  .t 6 7 4 D d 0.D.,.b t n A.h.~ y d y n d y t  . .%.T N $.} N  .l t w 6 N h.4.~ x.t.x.n N N D z u a 7 R f.L.N t d w 6 a t  .",
"L b =.l t 7 X > a  .9.B M N K &.t.<.l n d B b b l n N B n 1.L.d w l t l d 3 l 4.T b n d l - 6 w 8 u 2 7 7 N N #.n N x N l w z J ",
"N b T n % d l 1.l y 3 6 l d b m.K ^ n =.=.l d q w ^ B q x.A.n 7 < 1 t y N $.b t $.6 t y N T | N - 6 l N N d 1 O %.b n B N B %.N ",
"l q d l n N B 1. .d - 3 d d t t N K N n x d d w 1 l b t M l a a d q n h.k.N 6 6 t w l 6 b c.T.L. .%.} } B l 9 & T N B B B T N l ",
"q y b d %.b f.h.d t l 0.A.0.l 3 1 t n l d l t q d w 3 d n K a 7 p 1 t N B l t B a 7 d d t.t.^ 4. . .T N n l a e l ~ %.B %.%.n y ",
"n c.B d T N h.1.= , b  .}  .=.N , 1 n x x N a d l b N 0.d b d d n b  .0.$.} b N f 8 p z F.<.b B n B %.N d t d b 6 %.0.T 1.0.B n ",
"T  .6 d B N t - % 3 b N l T k.0.b q l l x N b 6.n N T ! 6 l n l m.^ &.| }  .M B F ` ` q b n d a t l N B N N B %.- %.h.%.1.f. .%.",
"b y 6 f.1.l & - t b T T ^ A.A. .d 1 6 y l l b 6.<.N d 7 3 N  .l 6.e w t l b M p.s z 4.a t 3 q d d d a b B T N l 6 B 1.N N T T N ",
"N l 0.U.0.n l %.T  .l 3 w n K N p t 6 y y w b K M T T w 1 a 0.f.K d l N } T d b - # b N b t l  .t.~ g d a y q 6 b N T n l N T b ",
"N d f.y t b T B x =.n 3 3 3 = @ B.F.N l w 6 ~ 4.B n n 7 d n 0.~ b N T l b t.~ m N y C k y x N d B B n d e d N -.h.%.%.B n  .f.N ",
"N l t % # n A.T ^ J n d d N y 6 4.Y.K  .l t x s.N x N b T q t l B q J ` 4 > y B c x #.k x R r.u N s.B b w J ` ;.w w f d a D.B b ",
"~ w t ~ 0.T T 0.N n N T h.L.N 7 L R.^ N n l w x l x } N N 3 t n %.b L f 4 z N b %.M l k k %.n 3 l N } b n n d 4 p u p K d n t y ",
",.B n n B B y q & 7 n T | n z a d B.t w T b 7 T  .B } B %.b b b b N &.f u d l M N d r B b C l e d d N l %.b l - u a a L d d K 0.",
":.B l n <.b y :.1.l t x M.&.D u ^ T t n t.t = N $.B N N N B ~ n k y d f n t 3 M f p a <.B b d B z d n M B b l t ` P.n.S.n N 0.| ",
"k B n p d b N 2.1.x d N A.d w +  .l K h.h.l w d t x N l 3 y  .t.C w - t >.N 6 M A i s z J w a F d N B 1.M b k k n 6.! M.x d n t ",
"k c.^ @ + n 1.M  .n t 6 3   a ^ N d  .b d N ^ b x N N y % d 0.<.1.N y w m ^ N 1.H u 7 7 U a s S l ~ N B y M N  .q - % l t t x  .",
"a.x u i f D f.L.p u f y.T.w B M  .} 0.1 3 b b e h.f.B l - <.D.K $.f.<.e e n N %.n d t y $.T p s x N x t t n ! &.9.y t N d N N P.",
"a.l p D F _ R r 4 4 u n ^ o y b l N | 6 N K d d B 1.%.b % ^ I.4.k.1.<.d e d t w y C B z.z.9.q 0 y l x 6 l z z 4 ,.n %.1.N f.N #.",
"k q y t t t = 4 u L f 7 3 f.A.1.a x N 6 t.y.u u a q a t 1 q N ^ f.=.0.T n B B r w w 4.%.1.C r M V v k z D Z 5 : r I.%.T l b d q ",
"t  .U.N t d q d N N d J n T T 0.f.l w # w a 4 F ^ N d n d 3 w N R n N T T 1.%.N t t  .0.B M ; N M C %.N G ) f 2 t 1.%.T l b J K ",
"1 K h.l d b t l f.B l $.N n l &.<.q - % 3 l t ! K b a B.B.3 3 d d t w l T T N B l d n  .N T 7 T N N l d s z d 7 b l %.N n N <.x.",
"4 b N N <.%.b B C C b B l n u w 3 a y.T - b N A.A.l 1 N b - n 0.l b t t B T N %.k N x R t n 4 J N 7 - w d t t n  .t ~ n B ^  .T ",
"> a d d n b l l k M M B n K q % n L U.&.6 T | h.D.t 6 n 6 -  .~ n B y 6 y n l b t $.} N $ 7 > p u 3 w N T l b 1.N t  .b n N n y ",
"d ^ N l T I.I.l B B b B b N l l ^ b  .n w T n b b 6 N 0.y l T l N B l 6 7 l x l N $.l d w n w q < d 0.c.#.b d d d a T n d y y t ",
"N N y t d A.I.= T  .N N t l M a.w d M.d w l y e l y %.b t M b 1.1.1.%.N l N $.=.=.B t b 1.c.~ M d J 1.#.B b y 3 n N d N n y t l ",
"1.C N n 6 a Q > 3 n B n ; t k M R x n $ n R.m . y N c.b M B 6 f.2.N B T l l |  .} T N 1.c.C 2.v.P.N r k C ~ N h B.&.1 N 1.b y M ",
"c.N T N N 6 y N b l T 6 % l B B n S.1 % U.N t 6 w l 1.%.N N l l H S.K d N n t p r M l N M.0.0.L.D.e e a ^ B a.M 3 N t d N N t L.",
"B l t n N N N %.K.B n 6 - y l ~ N K t = b d l n n n %.N l l w t D L a q M T T h.N w 6 N =.}  .%.y q = & ^ 0.a.C d T t 6 y l t N ",
"d w % t y %.N N y.d w a N n d T  .a d - - t N  .T N  .T n l l T p b l l 1.2.b N f u f s 7 l N r r b q % m ~ B 2.N T l 6 b N b t ",
"N N t d l  .N b d 3 % d A.4.d K  .l d w - t K N T n T N l t 6 l N %.b y b M l l u f ) f 7 z n y M 9.N w d d l 2. .n n t N } #.y ",
"N B 1.N T N N y N t & w &. .n J l 0.b n d 6 l d N w y b B B d l y B B y k M M k p < 4 s &.N 6 b a.T n z w t n %.&.d d t l l C M ",
"w l 0.N  .b n t  .J w t N J J z 3 A.K 0.n 1 t a B w q b h.K.T n 3 l T N n B B M d t p d &.N - M J.b w z u d n N d t l n n l N N ",
"l N  .T %.B N b J T z n z d n 7 1 T K  .a 6 w d 1.N n l b n w 6 n d p p w d %.f.,.%.A.n n 1.l N 1.R t p u z t d t N T $.N N b N ",
"1. .l b t N l l T ! n n w 1 a - w t l N 6 l t d n T f.N t t y N n q w f f p N 1.J.q k t t B y y k =.d w 4 t = t &.U.0.N w x b %."
};
