/* XPM */
static char * path_to_the_north_xpm[] = {
"64 64 58 1",
" 	c #352D23",
".	c #393126",
"+	c #3D3529",
"@	c #42392D",
"#	c #3F382C",
"$	c #464032",
"%	c #2E271E",
"&	c #564A3A",
"*	c #5A4E3C",
"=	c #5D513F",
"-	c #5E5341",
";	c #625542",
">	c #665945",
",	c #534738",
"'	c #4D4334",
")	c #6B5C47",
"!	c #72634D",
"~	c #6B5D48",
"{	c #6F634F",
"]	c #726652",
"^	c #6F604B",
"/	c #40372B",
"(	c #675D48",
"_	c #7E6C54",
":	c #807158",
"<	c #89775D",
"[	c #826F56",
"}	c #87745A",
"|	c #89755B",
"1	c #786650",
"2	c #7B6952",
"3	c #897A62",
"4	c #928269",
"5	c #87775D",
"6	c #8E7E62",
"7	c #807057",
"8	c #766750",
"9	c #74634E",
"0	c #77664F",
"a	c #857259",
"b	c #8C795F",
"c	c #938265",
"d	c #8C7B60",
"e	c #7D6B53",
"f	c #8B795E",
"g	c #83745A",
"h	c #70604B",
"i	c #483F31",
"j	c #373026",
"k	c #7F7057",
"l	c #917E62",
"m	c #877A60",
"n	c #756952",
"o	c #463E30",
"p	c #584F40",
"q	c #6F6550",
"r	c #7E6F58",
"s	c #8E8165",
" .++.+++. .+@@@##+.+@.+#$@@+.  % +@@++.++#@@+.. . ..+++@..+@++#@",
".&****=**&****&++&&-;=-->-&,&,'.+&=-*&,&&*==*&'..,*--*&***===&,+",
"@;;>>>>>)!~>;;-@+*;{]~>)^>=***=/@*>));*-;~))>;*@.=(]])~;~)!^~*&.",
".&;_:<:_[}|12>;@+*~345}}67288=*/@*~2|[190abb_)&++;!c6}_[}<d}<;*.",
" ,=1ea[2e}f_e>;@@=~53_:gf[e28;*+@=![aae00}ff_~*@@;)<}a_fc66:_;*/",
" '*>;>;;)^!>)-=+@*-~^>>>~>>{~~;@@;hh~!>;*>;~)>=@+&=>>;=>!^~;>**/",
" '****==--;=;*,+@*&*&&*====-;>-@@*=&,*&=&=&==;*..'*-;&&&-***&&,/",
" .@@@+++#+++@@@++@@@#+...@@iii@++++..++@+/+/@@+  .@@@+++/+/++++ ",
".+/@/@+  .//@+@@$$i#...j.@@+@@@/@+.  .+++/@@@/. .@$i@@@..@@++.++",
"*=-;*-&+.,*&-*-->(>;-&,.@*=&*--*=**&=*,j.,==;=&,&====;*//**&&&**",
"=;)~;;=@+&;>~)>(~~{~)*&+i>~;)~^~^~^~h;&..*;>~~;;;;)>~;=+@*;;)>~0",
"a|}|[>=@+'*2c65[02[a:;&+i;~2<bdc6f||f>&..*;_<f}[[eke_;=++&;e<|bl",
"[aea_;&.+'&2lcl|10e7_;&+@>{_|<6cm}}b<)*@@;;8_<f|a[55:)-++&;e[||f",
"!^;>~>=.+'*>!!~h)>;>)=&+@=-;>~!n~**;)>;i@;>>>~!!~>)>^)-+.&=)>))~",
";=&*==, .'&**&*====*-*,++*&*=;--,''*=;*@/&*&&*;;-=-;;;*++&**&***",
"@@+@@@# ..+@+. +++@@@@+ .++#@@@@. .+@o@+.+@@@@@@@ii@@@/ .+@++.+@",
" +@@@@+++@+@+..  +///@++.i@@+@@. .+@@@++.+++/++..i@@@@+..#@@#+@+",
".*;-->;;;;****,..,**-;-**--*&-=@.'&-=p&&&*=*&&,+#---=*&',*;-*&*@",
".*;>>^)~~9^{q~-+@=>))^~~~^(>;;-i@**>~>(;>->;;*,+/=;;;>>;>{!]~);i",
"+-;2_6f6fb}3m{;/@;!fc6b}<_:[:~-@/=>e72ker2a:2*'+@;)_a7}:}}<b[~=@",
"+*=h0_e_a|bc6^-+@;0c66|<|aaa7);@@;)0e235:2:6};,.+&>ef[}:b|f<a!>@",
"+*;;~~~>~>>)~>*+/-^nn{(>~);*;~;#+*>;=;>);>^8!=,.+&;!]>;=>>)>)~-@",
"+&=*;=*,&,**=*' .,=---*=-;*,&**@+&*&,**==*;>;*,+.$,*-&&'*&**-;*+",
".+.+@@+....@@@+. +.+#@@@@@+..#@..+@@+++++.+++... . ..+...++@@@+.",
"@+..+@+  +@i@@+@.+...@@#+@+@++@/@@@@@+@.++@++++@+. .+++ j+@@@+@@",
"&*&,&*&+.*=;->>>==&**-=@+&*=*=*&*=-*&&*++,*=****&&&*;;*+.,*&**;;",
">)>;;>=@+-~n{]^~>>>;=**++*-)~~)>>)^~>--@/*~28^));;>!]~;/+,-({~!9",
"g722~;&+.&)ff6ff:f}}2;*++&;alba7ee7__;;@+&;66l[e02:65~-@+,;g6dbc",
"c:!0~;&+.&~fd6a5:5:_!-=++&>[|<|d77_f5~;@+*;666a7e20[e;&++,;k5:7<",
"{;*=;>-@+*>~)>;>>^~~)>;+.&;))>)~;-*~^!)i+&&>)!h^)>;;;;&++,*=;;)!",
"=**&-;-@@*==**&=*====*, .,**,,&=&&,=*;=@.'&-;;;;-=&&*=*+.'&&&&&*",
"+++.@@i+.+..++...+@@@#.  .@+.   ...+.##.  ++@@@++@@@@@@. .+@...+",
" .+.++@@i#..+++j.++@#+. ..+.. j .+@@.++#+@@+#@@ .+@@@@@+++@@+.  ",
".,&'**;-;-*',,,.+*&-*=*,&,*,,''.+*>>-*&**=*&*&&j+,;--=;**&=;=&'.",
"@*==~!n^!^~;>;*+.&&>>))>)=;**,,+@-]nn^>>~{^~~;*+@*;;~h0~^>~>h>*+",
"i=>h:}6f<:_n2>=++*;_a}||a200)*&@@;]55_002}bba;*+@=~_bl4b|_<|<!;@",
"i*>~ek5<_2h02~*+.,-0[[|<f2n0!=&+@-~7a[!hh:<ba)*@@;~ac44}[1_[_~=+",
"+&;;;;)^>;*;>;*++&;)))~)~>>(~~=@+*;;>>**&;>~)*&@@;>!!{>;;;;)>~*+",
" i,*===*&&&*&*&++,***&*=;=;--=,..,**;=*,i$,=-*&+@**=;-&*&,',&-&.",
"%% +/@@@+#++..+.+#@@@/+@@@iii@+.j+@+/+/.  +@@@@..+/+++.#+++++@+.",
"   .+@@+.@@+.+@@+@@@++...@@@@@+@+#+++@@.jj#+@@@+//@@/@i@++/++++.",
"&,i$,&*@@---=*===;--**,++=---;=-==*&=--+@&-&=--**-;=*=*+.&==***&",
";;=;>;=@@;)h!!)~~{)>==*@@-;>;>;>;)>>~{(@@;>;>~~>>)>;;>;+.,*;;>>;",
"f7n[2;&/@-~|clb3f6<a0=*/@;>22_e07<l6f!;@@;~_[__7e[[2!=&..,*he[a7",
"6}5f<)*+@;):6c3f<6<a0;*@@=>1e1e2[<lc5^=+@;!:a__[a<f[1;*@+&*h_}f}",
"0~~)!~=+.*;>~!{>;))>;-*@+&;>>;~~)>{]n>*+@=>;;;>~~{~;;**++*=>)~!0",
"**=&-=& .,&&&==,&*&&,*&++,-*&&*=*&--;*, +&***;***-=**-=@+,*===;>",
"+++..++  .+++++..++++@+..+@+++@@@+#@@@@.+@@@@@@+.+...+@...//..+@",
".++.  . ++@@++. .+i@@@@++@i@+..  .@@+.++++@@@i+  +@+..++..+.. . ",
"+&*&,,&&&&=;**'.+&>-;**&*=>;;&&++'&****-=-&**-,.+&-&&'*=*,,&&&'.",
"+=;>;;>;>;));*,+@-{~]~~;)~!h~>=+.,-)~>>;;>;;;-,.@-^>>=>~>;=>~>*.",
"@->e_b<72e7a8*'.+*~[635:aa[a<!;@#*;[f6}}:ba[0*, +&)eaaaae[7f|!;@",
"@;)2_bl|e_}|_*' .*~_ff3}a}[}:~=++&>25:___bl6:=&.+&;:f}22eaa|_~-@",
"@;>;;>);;>~~>*,% ';;>>;;;>;;>==+@&;;);;;>!!!~;&+.&-~{^;**;>));=@",
"+&&&&*===-****,  '*&,&,&&==&&,*+@,-&&,,,&*-;-=,..&-;>-*&&,&**&,.",
" .++++++/@++.++  ..+.@+/+//+++@.#@o++...+@@@+@+../@@@@@+..+@+.. ",
"+++@+/+..++++/+..+++.++../@@@++@$$@++++j.@@@@@@/@@@@@@@. .@/+ ..",
",*;;=&'.+,*&&&&&&*--**&+/&;;-*&=--**-=&+@;;(-;=;=*&&&**#+,;**,,,",
";)~h>*,+/&-;)>)>)~~~>='.+*;~~^~!~>>~^>*+@;^]{!~hh~;;=>-@@&;;);>;",
"^2}_0*&++*;1aaa[<<df[;&++&;_56ss}5<l})*+.*^6466bl}e0!>-i@*;8e[22",
"22a00;*@@->e[_[_|a}a[)&+.*>k566c}6bc:=, .&~:66l|5gk28~;i@;>[_:00",
">;)=~>;@@;>>>));~)^));*//>^^>~~{)!!!~=,  ';)~~))>>~>>;>ii;;>;~;=",
"*&**;>=/+*=&,&&&=-;-==&+/->=**=;--=;-&'  '*=*&&*&*=*&=;@@&==-;-*",
"..@@i@@.j+++./+/@@@@@@+++@@+++@i@@/@@@+. .+@#+./@@@.+@i+..++@@$@"};
